<svg id="click" xmlns="http://www.w3.org/2000/svg" viewBox="-1.125 -1.125 36 36" height="36" width="36">
  <defs></defs>
  <path d="M24.0046875 28.982812499999998H13.767187499999999a2.8125 2.8125 0 0 1 -2.8125 -2.8125 2.8125 2.8125 0 0 1 2.8125 -2.8125h2.6296875L7.03125 13.865625a2.8125 2.8125 0 0 1 -0.2671875 -3.7265625 2.64375 2.64375 0 0 1 2.0671875 -0.95625 2.5875 2.5875 0 0 1 1.8984375000000002 0.7734375000000001l5.709375 5.709375 5.7375 -4.303125a2.6859375 2.6859375 0 0 1 3.515625 0.253125A24.159375 24.159375 0 0 1 31.528125000000003 21.09375l0.08437499999999999 0.2671875" fill="none" stroke="#FFF" stroke-miterlimit="10" stroke-width="2.25"></path>
  <path d="M14.9484375 14.23125A6.651562500000001 6.651562500000001 0 0 0 15.46875 11.4890625 6.721875000000001 6.721875000000001 0 1 0 8.803125 18.28125a6.5671875 6.5671875 0 0 0 2.1796875 -0.36562500000000003" fill="none" stroke="#FFF" stroke-miterlimit="10" stroke-width="2.25"></path>
</svg>