<svg width="32" height="32" viewBox="0 0 32 32" fill="none" xmlns="http://www.w3.org/2000/svg">
<path d="M19.5 22.6221V26.8828C19.4999 27.1618 19.3924 27.2903 19.2832 27.3672C19.148 27.4624 18.9701 27.4999 18.8574 27.5H13.1426C13.0299 27.4999 12.852 27.4624 12.7168 27.3672C12.6076 27.2903 12.5001 27.1618 12.5 26.8828V22.6221L16 19.1992L19.5 22.6221Z" stroke="#FFF"/>
<path d="M19.5 9.37793V5.11719C19.4999 4.83816 19.3924 4.70971 19.2832 4.63281C19.148 4.53764 18.9701 4.50006 18.8574 4.5H13.1426C13.0299 4.50006 12.852 4.53764 12.7168 4.63281C12.6076 4.70971 12.5001 4.83816 12.5 5.11719V9.37793L16 12.8008L19.5 9.37793Z" stroke="#FFF"/>
<path d="M9.37793 19.5L5.11719 19.5C4.83816 19.4999 4.70971 19.3924 4.63281 19.2832C4.53764 19.148 4.50006 18.9701 4.5 18.8574L4.5 13.1426C4.50006 13.0299 4.53764 12.852 4.63281 12.7168C4.70971 12.6076 4.83816 12.5001 5.11719 12.5L9.37793 12.5L12.8008 16L9.37793 19.5Z" fill="#FFF" stroke="#FFF"/>
<path d="M22.6221 19.5L26.8828 19.5C27.1618 19.4999 27.2903 19.3924 27.3672 19.2832C27.4624 19.148 27.4999 18.9701 27.5 18.8574L27.5 13.1426C27.4999 13.0299 27.4624 12.852 27.3672 12.7168C27.2903 12.6076 27.1618 12.5001 26.8828 12.5L22.6221 12.5L19.1992 16L22.6221 19.5Z" stroke="#FFF"/>
</svg>
