<svg id="hold" xmlns="http://www.w3.org/2000/svg" viewBox="-0.5 -0.5 36 36" height="36" width="36">
  <defs></defs>
  <path d="m10.558333333333334 32.84166666666666 -7.510416666666667 -7.495833333333333a2.9166666666666665 2.9166666666666665 0 0 1 2.0999999999999996 -5.060416666666667 2.9166666666666665 2.9166666666666665 0 0 1 2.0854166666666663 0.8749999999999999l1.925 1.925V9.289583333333333A2.9166666666666665 2.9166666666666665 0 0 1 11.666666666666666 6.343749999999999a2.8291666666666666 2.8291666666666666 0 0 1 3.033333333333333 2.7854166666666664V17.5l7.364583333333333 1.0499999999999998a2.8 2.8 0 0 1 2.3916666666666666 2.770833333333333A25.15625 25.15625 0 0 1 21.875 32.579166666666666l-0.13124999999999998 0.26249999999999996" fill="none" stroke="#FFF" stroke-miterlimit="10" stroke-width="2.25"></path>
  <path d="M14.743749999999999 15.516666666666667a6.620833333333333 6.620833333333333 0 0 0 2.14375 -1.4583333333333333 6.985416666666667 6.985416666666667 0 1 0 -9.872916666666665 0 6.620833333333333 6.620833333333333 0 0 0 2.14375 1.4583333333333333" fill="none" stroke="#FFF" stroke-miterlimit="10" stroke-width="2.25"></path>
  <path d="m29.166666666666664 7.495833333333333 -0.48125 0.23333333333333334 -0.4666666666666667 -0.23333333333333334a4.1708333333333325 4.1708333333333325 0 0 1 -2.31875 -3.7479166666666663V2.158333333333333h5.585416666666666v1.5895833333333333A4.199999999999999 4.199999999999999 0 0 1 29.166666666666664 7.495833333333333Z" fill="none" stroke="#FFF" stroke-miterlimit="10" stroke-width="2.25"></path>
  <path d="m23.114583333333332 2.158333333333333 11.15625 0" fill="none" stroke="#FFF" stroke-miterlimit="10" stroke-width="2.25"></path>
  <path d="m28.21875 7.977083333333333 0.4666666666666667 -0.24791666666666667 0.48125 0.24791666666666667A4.185416666666667 4.185416666666667 0 0 1 31.485416666666666 11.666666666666666v1.6041666666666667h-5.585416666666666V11.666666666666666a4.15625 4.15625 0 0 1 2.31875 -3.6895833333333328Z" fill="none" stroke="#FFF" stroke-miterlimit="10" stroke-width="2.25"></path>
  <path d="m34.27083333333333 13.314583333333333 -11.15625 0" fill="none" stroke="#FFF" stroke-miterlimit="10" stroke-width="2.25"></path>
</svg>