<?xml version="1.0" encoding="UTF-8" standalone="no"?>
<svg
   viewBox="0 0 36 36"
   version="1.1"
   id="svg2"
   width="36"
   height="36"
   sodipodi:docname="home.svg"
   inkscape:version="1.4.2 (f4327f4, 2025-05-13)"
   xmlns:inkscape="http://www.inkscape.org/namespaces/inkscape"
   xmlns:sodipodi="http://sodipodi.sourceforge.net/DTD/sodipodi-0.dtd"
   xmlns="http://www.w3.org/2000/svg"
   xmlns:svg="http://www.w3.org/2000/svg"
   xmlns:bx="https://boxy-svg.com">
  <sodipodi:namedview
     id="namedview1"
     pagecolor="#ffffff"
     bordercolor="#000000"
     borderopacity="0.25"
     inkscape:showpageshadow="2"
     inkscape:pageopacity="0.0"
     inkscape:pagecheckerboard="0"
     inkscape:deskcolor="#d1d1d1"
     inkscape:zoom="22.472222"
     inkscape:cx="13.572311"
     inkscape:cy="16.620519"
     inkscape:window-width="1920"
     inkscape:window-height="1011"
     inkscape:window-x="1912"
     inkscape:window-y="-8"
     inkscape:window-maximized="1"
     inkscape:current-layer="svg2" />
  <defs
     id="defs1">
    <clipPath
       id="clip0_1_432">
      <rect
         width="20"
         height="20"
         fill="#ffffff"
         id="rect1"
         x="0"
         y="0" />
    </clipPath>
    <bx:export>
      <bx:file
         format="svg"
         href="#object-0"
         path="Bez nazwy.svg" />
    </bx:export>
  </defs>
  <path
     d="m 10.581,1.161 c 4.66,0 8.437,3.777 8.437,8.436 0,4.661 -3.777,8.438 -8.437,8.438 -4.659,0 -8.437,-3.777 -8.437,-8.438 0,-4.659 3.778,-8.436 8.437,-8.436 z"
     stroke="#afc1d1"
     id="path1"
     style="stroke:#ffffff;stroke-opacity:1;fill:none;fill-opacity:1;stroke-width:0.89365968;stroke-dasharray:none"
     transform="matrix(1.9023813,0,0,1.902199,-2.1275149,-0.25735354)"
     inkscape:label="offset" />
  <path
     id="path2-5"
     style="display:inline;fill:#ffffff;fill-opacity:1;stroke:#ffffff;stroke-opacity:1;stroke-linejoin:round;stroke-linecap:round;paint-order:normal;stroke-width:1.4;stroke-dasharray:none"
     d="M 17.720264 7.0193812 C 11.811468 7.0193812 7.0190918 11.812374 7.0190918 17.722506 C 7.0190918 23.623127 11.811468 28.415865 17.720264 28.415865 C 23.627158 28.415865 28.421436 23.623127 28.421436 17.722506 C 28.421436 11.812374 23.627158 7.0193812 17.720264 7.0193812 z M 17.718311 12.138522 C 18.336691 12.138522 18.895858 12.484889 20.015186 13.179537 L 21.132373 13.872897 C 22.191249 14.530035 22.719536 14.85716 23.009326 15.386569 C 23.299126 15.915988 23.300342 16.554634 23.300342 17.831881 L 23.300342 18.68149 C 23.300342 20.858666 23.299987 21.948491 22.646045 22.62485 C 21.992163 23.301258 20.940419 23.300631 18.835498 23.300631 L 16.601123 23.300631 C 14.496172 23.300631 13.444498 23.301258 12.790576 22.62485 C 12.136654 21.948491 12.136279 20.858666 12.136279 18.68149 L 12.136279 17.831881 C 12.136279 16.554634 12.137505 15.915988 12.427295 15.386569 C 12.717095 14.85716 13.245372 14.530035 14.304248 13.872897 L 15.421436 13.179537 C 16.540743 12.484889 17.09993 12.138522 17.718311 12.138522 z M 17.718311 19.392428 L 17.718311 21.068209 L 17.718311 19.392428 z "
     transform="translate(0.28168944,0.28139999)" />
  <g
     inkscape:groupmode="layer"
     id="layer1-6"
     inkscape:label="Layer 1"
     transform="translate(0.28168944,0.28139999)" />
  <g
     inkscape:groupmode="layer"
     id="layer1-6-2"
     inkscape:label="Layer 1"
     transform="matrix(1.0000338,0,0,0.99999801,0.28098788,0.28181775)"
     style="display:inline" />
</svg>
