<?xml version="1.0" encoding="UTF-8"?>
<svg xmlns="http://www.w3.org/2000/svg" xmlns:xlink="http://www.w3.org/1999/xlink" width="36px" height="36px" viewBox="0 0 36 23" version="1.1">
<defs>
<clipPath id="clip1">
  <path d="M 0 0 L 36 0 L 36 22.277344 L 0 22.277344 Z M 0 0 "/>
</clipPath>
</defs>
<g id="surface1">
<g clip-path="url(#clip1)" clip-rule="nonzero">
<path style="fill:none;stroke-width:1;stroke-linecap:butt;stroke-linejoin:miter;stroke:rgb(100%,100%,100%);stroke-opacity:1;stroke-miterlimit:4;" d="M 2.445747 0.498981 L 17.554253 0.498981 C 18.172743 0.498981 18.645833 0.702106 18.962674 1.017833 C 19.279514 1.335768 19.481337 1.808254 19.481337 2.426461 L 19.481337 2.448539 L 19.483507 2.470618 C 19.483507 2.472826 19.483507 2.472826 19.483507 2.475034 C 19.485677 2.477242 19.485677 2.483865 19.485677 2.492697 C 19.485677 2.508152 19.487847 2.534647 19.490017 2.567765 C 19.494358 2.636209 19.498698 2.737772 19.500868 2.870245 C 19.503038 3.132982 19.496528 3.512738 19.455295 3.969769 C 19.375 4.888247 19.157986 6.100374 18.619792 7.305876 C 18.083767 8.506963 17.235243 9.694803 15.885417 10.586787 C 14.53559 11.476563 12.65408 12.092561 10.015191 12.092561 C 7.376302 12.092561 5.492622 11.476563 4.140625 10.586787 C 2.788628 9.694803 1.933594 8.506963 1.395399 7.303668 C 0.852865 6.100374 0.63151 4.886039 0.546875 3.969769 C 0.505642 3.512738 0.496962 3.132982 0.499132 2.868037 C 0.501302 2.737772 0.505642 2.634001 0.507812 2.565557 C 0.509983 2.532439 0.512153 2.505944 0.514323 2.490489 C 0.514323 2.481658 0.514323 2.477242 0.514323 2.472826 C 0.514323 2.472826 0.514323 2.470618 0.514323 2.470618 L 0.516493 2.448539 L 0.516493 2.426461 C 0.516493 1.808254 0.720486 1.335768 1.035156 1.017833 C 1.312934 0.741848 1.710069 0.55197 2.220052 0.51002 Z M 2.445747 0.498981 " transform="matrix(1.8,0,0,1.769231,0,0)"/>
</g>
<path style=" stroke:none;fill-rule:nonzero;fill:rgb(100%,100%,100%);fill-opacity:1;" d="M 10.570312 16.855469 L 10.570312 3.800781 L 13.351562 3.800781 L 13.351562 14.480469 L 19.933594 14.480469 L 19.933594 16.855469 Z M 10.570312 16.855469 "/>
<path style=" stroke:none;fill-rule:nonzero;fill:rgb(100%,100%,100%);fill-opacity:1;" d="M 20.046875 16.972656 L 10.449219 16.972656 L 10.449219 3.683594 L 13.46875 3.683594 L 13.46875 14.363281 L 20.046875 14.363281 Z M 10.6875 16.742188 L 19.816406 16.742188 L 19.816406 14.59375 L 13.234375 14.59375 L 13.234375 3.914062 L 10.6875 3.914062 Z M 10.6875 16.742188 "/>
<path style=" stroke:none;fill-rule:nonzero;fill:rgb(100%,100%,100%);fill-opacity:1;" d="M 22.832031 16.855469 L 22.832031 7.832031 L 20.113281 7.832031 L 20.113281 6.0625 C 20.683594 6.0625 21.167969 6.015625 21.554688 5.921875 C 21.941406 5.832031 22.257812 5.691406 22.5 5.503906 C 22.746094 5.3125 22.933594 5.078125 23.0625 4.792969 C 23.1875 4.511719 23.273438 4.183594 23.3125 3.800781 L 25.4375 3.800781 L 25.4375 16.855469 Z M 22.832031 16.855469 "/>
<path style=" stroke:none;fill-rule:nonzero;fill:rgb(100%,100%,100%);fill-opacity:1;" d="M 25.550781 16.972656 L 22.714844 16.972656 L 22.714844 7.949219 L 19.996094 7.949219 L 19.996094 5.949219 L 20.109375 5.949219 C 20.671875 5.949219 21.144531 5.902344 21.523438 5.8125 C 21.890625 5.726562 22.195312 5.59375 22.429688 5.410156 C 22.660156 5.234375 22.835938 5.011719 22.953125 4.75 C 23.074219 4.480469 23.152344 4.15625 23.191406 3.789062 L 23.203125 3.683594 L 25.550781 3.683594 Z M 22.949219 16.742188 L 25.3125 16.742188 L 25.3125 3.914062 L 23.414062 3.914062 C 23.371094 4.265625 23.289062 4.574219 23.167969 4.839844 C 23.035156 5.136719 22.832031 5.390625 22.570312 5.589844 C 22.3125 5.789062 21.976562 5.9375 21.578125 6.035156 C 21.210938 6.125 20.753906 6.167969 20.226562 6.175781 L 20.226562 7.714844 L 22.945312 7.714844 L 22.945312 16.742188 Z M 22.949219 16.742188 "/>
</g>
</svg>
