<?xml version="1.0" encoding="UTF-8"?>
<svg xmlns="http://www.w3.org/2000/svg" xmlns:xlink="http://www.w3.org/1999/xlink" width="36px" height="36px" viewBox="0 0 36 36" version="1.1">
<g id="surface1">
<path style="fill:none;stroke-width:1;stroke-linecap:butt;stroke-linejoin:miter;stroke:rgb(100%,100%,100%);stroke-opacity:1;stroke-miterlimit:4;" d="M 10 0.499132 C 15.247396 0.499132 19.500868 4.752604 19.500868 10 C 19.500868 15.247396 15.247396 19.500868 10 19.500868 C 4.752604 19.500868 0.499132 15.247396 0.499132 10 C 0.499132 4.752604 4.752604 0.499132 10 0.499132 Z M 10 0.499132 " transform="matrix(1.8,0,0,1.8,0,0)"/>
<path style=" stroke:none;fill-rule:nonzero;fill:rgb(100%,100%,100%);fill-opacity:1;" d="M 8.210938 24.671875 L 8.210938 11.308594 L 11.007812 11.308594 L 11.007812 22.234375 L 17.628906 22.234375 L 17.628906 24.671875 Z M 8.210938 24.671875 "/>
<path style=" stroke:none;fill-rule:nonzero;fill:rgb(100%,100%,100%);fill-opacity:1;" d="M 17.777344 24.820312 L 8.058594 24.820312 L 8.058594 11.160156 L 11.15625 11.160156 L 11.15625 22.085938 L 17.777344 22.085938 Z M 8.359375 24.519531 L 17.476562 24.519531 L 17.476562 22.386719 L 10.859375 22.386719 L 10.859375 11.457031 L 8.359375 11.457031 Z M 8.359375 24.519531 "/>
<path style=" stroke:none;fill-rule:nonzero;fill:rgb(100%,100%,100%);fill-opacity:1;" d="M 22.132812 16.84375 C 22.699219 16.84375 23.15625 16.792969 23.511719 16.691406 C 23.867188 16.589844 24.144531 16.460938 24.335938 16.289062 C 24.53125 16.121094 24.667969 15.929688 24.742188 15.707031 C 24.816406 15.484375 24.851562 15.253906 24.851562 15.011719 C 24.851562 14.339844 24.714844 13.832031 24.441406 13.480469 C 24.164062 13.132812 23.726562 12.957031 23.121094 12.957031 C 22.613281 12.957031 22.191406 13.148438 21.855469 13.53125 C 21.515625 13.914062 21.351562 14.453125 21.351562 15.152344 L 18.917969 15.152344 C 18.917969 14.507812 19.019531 13.925781 19.226562 13.402344 C 19.4375 12.878906 19.730469 12.425781 20.113281 12.054688 C 20.496094 11.675781 20.953125 11.386719 21.484375 11.175781 C 22.011719 10.96875 22.59375 10.863281 23.222656 10.863281 C 23.800781 10.863281 24.339844 10.953125 24.84375 11.128906 C 25.347656 11.300781 25.785156 11.550781 26.160156 11.871094 C 26.539062 12.191406 26.832031 12.582031 27.046875 13.03125 C 27.261719 13.480469 27.367188 13.972656 27.367188 14.511719 C 27.367188 15.113281 27.238281 15.6875 26.976562 16.230469 C 26.714844 16.773438 26.324219 17.199219 25.800781 17.507812 C 26.441406 17.773438 26.9375 18.183594 27.277344 18.726562 C 27.621094 19.269531 27.792969 19.960938 27.792969 20.808594 C 27.792969 21.480469 27.679688 22.082031 27.449219 22.617188 C 27.222656 23.15625 26.898438 23.609375 26.484375 23.976562 C 26.066406 24.34375 25.570312 24.632812 24.992188 24.832031 C 24.417969 25.03125 23.777344 25.132812 23.082031 25.132812 C 21.6875 25.132812 20.605469 24.746094 19.839844 23.96875 C 19.078125 23.1875 18.695312 22.117188 18.695312 20.746094 L 21.210938 20.746094 C 21.210938 21.523438 21.375 22.089844 21.710938 22.449219 C 22.046875 22.800781 22.542969 22.980469 23.203125 22.980469 C 23.75 22.980469 24.207031 22.789062 24.570312 22.40625 C 24.933594 22.027344 25.113281 21.480469 25.113281 20.769531 C 25.113281 19.992188 24.886719 19.445312 24.4375 19.136719 C 23.988281 18.828125 23.21875 18.675781 22.132812 18.675781 Z M 22.132812 16.84375 "/>
<path style=" stroke:none;fill-rule:nonzero;fill:rgb(100%,100%,100%);fill-opacity:1;" d="M 23.082031 25.28125 C 21.652344 25.28125 20.527344 24.875 19.734375 24.070312 C 18.945312 23.269531 18.546875 22.152344 18.546875 20.746094 L 18.546875 20.597656 L 21.359375 20.597656 L 21.359375 20.746094 C 21.359375 21.480469 21.511719 22.019531 21.820312 22.34375 C 22.125 22.667969 22.589844 22.832031 23.203125 22.832031 C 23.714844 22.832031 24.125 22.660156 24.460938 22.304688 C 24.796875 21.953125 24.964844 21.4375 24.964844 20.769531 C 24.964844 20.046875 24.757812 19.539062 24.355469 19.261719 C 23.933594 18.972656 23.1875 18.824219 22.132812 18.824219 L 21.984375 18.824219 L 21.984375 16.691406 L 22.132812 16.691406 C 22.683594 16.691406 23.132812 16.644531 23.472656 16.546875 C 23.804688 16.453125 24.0625 16.328125 24.242188 16.175781 C 24.417969 16.023438 24.535156 15.855469 24.597656 15.65625 C 24.667969 15.453125 24.703125 15.234375 24.703125 15.011719 C 24.703125 14.375 24.574219 13.894531 24.320312 13.574219 C 24.074219 13.261719 23.683594 13.109375 23.121094 13.109375 C 22.652344 13.109375 22.273438 13.277344 21.964844 13.632812 C 21.65625 13.984375 21.5 14.496094 21.5 15.152344 L 21.5 15.300781 L 18.765625 15.300781 L 18.765625 15.152344 C 18.765625 14.492188 18.871094 13.882812 19.085938 13.347656 C 19.300781 12.808594 19.609375 12.335938 20.003906 11.949219 C 20.398438 11.5625 20.878906 11.253906 21.421875 11.039062 C 21.96875 10.824219 22.570312 10.71875 23.21875 10.71875 C 23.808594 10.71875 24.371094 10.808594 24.886719 10.988281 C 25.40625 11.167969 25.867188 11.429688 26.253906 11.757812 C 26.644531 12.09375 26.953125 12.5 27.179688 12.964844 C 27.402344 13.429688 27.515625 13.953125 27.515625 14.507812 C 27.515625 15.128906 27.378906 15.730469 27.109375 16.292969 C 26.875 16.78125 26.539062 17.175781 26.105469 17.484375 C 26.65625 17.761719 27.089844 18.152344 27.402344 18.644531 C 27.757812 19.210938 27.9375 19.9375 27.9375 20.808594 C 27.9375 21.496094 27.820312 22.125 27.582031 22.679688 C 27.347656 23.234375 27.007812 23.710938 26.578125 24.089844 C 26.152344 24.472656 25.632812 24.769531 25.039062 24.976562 C 24.453125 25.179688 23.792969 25.28125 23.082031 25.28125 Z M 18.84375 20.894531 C 18.871094 22.144531 19.242188 23.144531 19.949219 23.859375 C 20.679688 24.605469 21.734375 24.984375 23.082031 24.984375 C 23.761719 24.984375 24.386719 24.882812 24.945312 24.691406 C 25.5 24.496094 25.984375 24.21875 26.382812 23.863281 C 26.78125 23.511719 27.09375 23.074219 27.308594 22.558594 C 27.527344 22.042969 27.640625 21.453125 27.640625 20.804688 C 27.640625 19.992188 27.476562 19.316406 27.152344 18.804688 C 26.828125 18.289062 26.355469 17.898438 25.738281 17.644531 L 25.464844 17.527344 L 25.722656 17.378906 C 26.21875 17.085938 26.59375 16.675781 26.839844 16.164062 C 27.09375 15.644531 27.21875 15.085938 27.21875 14.507812 C 27.21875 13.996094 27.113281 13.519531 26.910156 13.09375 C 26.703125 12.664062 26.421875 12.292969 26.0625 11.984375 C 25.703125 11.679688 25.277344 11.433594 24.792969 11.269531 C 24.308594 11.101562 23.78125 11.015625 23.222656 11.015625 C 22.613281 11.015625 22.046875 11.117188 21.535156 11.320312 C 21.027344 11.519531 20.582031 11.800781 20.21875 12.160156 C 19.851562 12.519531 19.566406 12.957031 19.367188 13.457031 C 19.183594 13.917969 19.082031 14.441406 19.066406 15.003906 L 21.203125 15.003906 C 21.226562 14.339844 21.40625 13.8125 21.742188 13.433594 C 22.105469 13.019531 22.570312 12.808594 23.121094 12.808594 C 23.769531 12.808594 24.253906 13.003906 24.558594 13.386719 C 24.851562 13.761719 25.003906 14.308594 25.003906 15.011719 C 25.003906 15.269531 24.960938 15.515625 24.886719 15.75 C 24.800781 16 24.652344 16.214844 24.4375 16.402344 C 24.226562 16.582031 23.929688 16.726562 23.554688 16.835938 C 23.21875 16.929688 22.792969 16.984375 22.285156 16.988281 L 22.285156 18.527344 C 23.332031 18.539062 24.0625 18.699219 24.523438 19.011719 C 25.011719 19.351562 25.261719 19.941406 25.261719 20.765625 C 25.261719 21.511719 25.066406 22.101562 24.679688 22.507812 C 24.289062 22.921875 23.789062 23.128906 23.203125 23.128906 C 22.503906 23.128906 21.96875 22.9375 21.605469 22.550781 C 21.265625 22.191406 21.082031 21.636719 21.0625 20.894531 Z M 18.84375 20.894531 "/>
</g>
</svg>
