<?xml version="1.0" encoding="UTF-8"?>
<svg xmlns="http://www.w3.org/2000/svg" xmlns:xlink="http://www.w3.org/1999/xlink" width="36px" height="36px" viewBox="0 0 36 39" version="1.1">
<defs>
<clipPath id="clip1">
  <path d="M 0 0 L 36 0 L 36 37.367188 L 0 37.367188 Z M 0 0 "/>
</clipPath>
</defs>
<g id="surface1">
<g clip-path="url(#clip1)" clip-rule="nonzero">
<path style="fill:none;stroke-width:1;stroke-linecap:butt;stroke-linejoin:miter;stroke:rgb(100%,100%,100%);stroke-opacity:1;stroke-miterlimit:4;" d="M 12.476128 0.5002 C 14.559462 0.5002 16.744792 1.789263 17.847222 4.140425 C 18.667535 5.887821 19.084201 8.02524 19.294705 9.748397 C 19.398872 10.607772 19.453125 11.352564 19.479167 11.885817 C 19.492188 12.15024 19.498698 12.361779 19.500868 12.505008 C 19.503038 12.577724 19.503038 12.632812 19.503038 12.668069 L 19.503038 18.628606 L 19.492188 18.864383 C 19.435764 19.39984 19.194878 19.789864 18.838976 20.065304 C 18.420139 20.389223 17.80816 20.578726 17.078993 20.578726 L 2.458767 20.578726 C 1.195747 20.578726 0.486111 19.70613 0.501302 18.862179 L 0.514323 18.694712 C 0.603299 18.040264 0.915799 16.729167 1.948785 13.359976 C 2.686632 10.960337 3.986545 7.265024 5.381944 5.178285 C 7.111545 2.59355 9.544271 0.5002 12.476128 0.5002 Z M 12.476128 0.5002 " transform="matrix(1.8,0,0,1.772727,0,0)"/>
</g>
<path style=" stroke:none;fill-rule:nonzero;fill:rgb(100%,100%,100%);fill-opacity:1;" d="M 10.238281 28.230469 L 10.238281 15.113281 L 13.027344 15.113281 L 13.027344 25.839844 L 19.625 25.839844 L 19.625 28.230469 Z M 10.238281 28.230469 "/>
<path style=" stroke:none;fill-rule:nonzero;fill:rgb(100%,100%,100%);fill-opacity:1;" d="M 19.742188 28.34375 L 10.125 28.34375 L 10.125 14.996094 L 13.144531 14.996094 L 13.144531 25.722656 L 19.742188 25.722656 Z M 10.355469 28.113281 L 19.507812 28.113281 L 19.507812 25.953125 L 12.910156 25.953125 L 12.910156 15.226562 L 10.355469 15.226562 Z M 10.355469 28.113281 "/>
<path style=" stroke:none;fill-rule:nonzero;fill:rgb(100%,100%,100%);fill-opacity:1;" d="M 20.308594 28.230469 C 20.308594 27.621094 20.355469 27.058594 20.457031 26.53125 C 20.558594 26.003906 20.75 25.484375 21.039062 24.96875 C 21.328125 24.457031 21.730469 23.9375 22.25 23.410156 C 22.777344 22.882812 23.460938 22.316406 24.316406 21.710938 C 24.800781 21.382812 25.195312 21.082031 25.507812 20.820312 C 25.828125 20.558594 26.074219 20.308594 26.261719 20.070312 C 26.449219 19.832031 26.585938 19.59375 26.667969 19.359375 C 26.746094 19.121094 26.785156 18.867188 26.785156 18.589844 C 26.785156 18.257812 26.738281 17.980469 26.644531 17.757812 C 26.550781 17.535156 26.421875 17.355469 26.253906 17.226562 C 26.085938 17.09375 25.890625 17 25.660156 16.949219 C 25.4375 16.898438 25.191406 16.871094 24.941406 16.871094 C 24.339844 16.871094 23.863281 17.039062 23.515625 17.371094 C 23.167969 17.707031 22.992188 18.316406 22.992188 19.199219 L 20.484375 19.199219 C 20.484375 17.777344 20.867188 16.667969 21.621094 15.871094 C 22.378906 15.074219 23.441406 14.679688 24.820312 14.679688 C 25.488281 14.679688 26.101562 14.757812 26.65625 14.914062 C 27.210938 15.074219 27.6875 15.3125 28.082031 15.625 C 28.476562 15.941406 28.78125 16.339844 29.003906 16.824219 C 29.226562 17.304688 29.335938 17.867188 29.335938 18.511719 C 29.335938 19.011719 29.269531 19.464844 29.136719 19.875 C 29 20.285156 28.785156 20.683594 28.484375 21.078125 C 28.183594 21.476562 27.785156 21.878906 27.289062 22.285156 C 26.796875 22.691406 26.195312 23.148438 25.484375 23.648438 C 24.976562 24.015625 24.550781 24.417969 24.203125 24.84375 C 23.855469 25.273438 23.667969 25.660156 23.640625 26 L 29.378906 26 L 29.378906 28.234375 L 20.308594 28.234375 Z M 20.308594 28.230469 "/>
<path style=" stroke:none;fill-rule:nonzero;fill:rgb(100%,100%,100%);fill-opacity:1;" d="M 29.488281 28.34375 L 20.191406 28.34375 L 20.191406 28.230469 C 20.191406 27.621094 20.238281 27.042969 20.34375 26.511719 C 20.445312 25.972656 20.644531 25.4375 20.9375 24.914062 C 21.226562 24.394531 21.644531 23.863281 22.167969 23.328125 C 22.691406 22.800781 23.394531 22.226562 24.25 21.617188 C 24.726562 21.292969 25.125 20.996094 25.4375 20.734375 C 25.742188 20.480469 25.992188 20.230469 26.171875 20 C 26.351562 19.777344 26.480469 19.546875 26.554688 19.324219 C 26.628906 19.101562 26.667969 18.851562 26.667969 18.589844 C 26.667969 18.277344 26.625 18.015625 26.539062 17.804688 C 26.453125 17.601562 26.335938 17.4375 26.183594 17.316406 C 26.027344 17.199219 25.84375 17.113281 25.636719 17.0625 C 25.414062 17.015625 25.183594 16.984375 24.941406 16.984375 C 24.375 16.984375 23.921875 17.144531 23.597656 17.457031 C 23.273438 17.769531 23.113281 18.359375 23.113281 19.203125 L 23.113281 19.316406 L 20.371094 19.316406 L 20.371094 19.203125 C 20.371094 17.757812 20.765625 16.609375 21.535156 15.796875 C 22.3125 14.976562 23.414062 14.566406 24.820312 14.566406 C 25.496094 14.566406 26.125 14.644531 26.6875 14.808594 C 27.253906 14.96875 27.75 15.214844 28.152344 15.539062 C 28.554688 15.867188 28.878906 16.28125 29.105469 16.773438 C 29.332031 17.269531 29.449219 17.851562 29.449219 18.511719 C 29.449219 19.019531 29.378906 19.492188 29.242188 19.90625 C 29.105469 20.328125 28.878906 20.746094 28.570312 21.148438 C 28.261719 21.550781 27.859375 21.960938 27.359375 22.371094 C 26.863281 22.78125 26.253906 23.242188 25.546875 23.738281 C 25.050781 24.097656 24.625 24.492188 24.289062 24.914062 C 24 25.265625 23.820312 25.59375 23.765625 25.878906 L 29.488281 25.878906 Z M 20.421875 28.113281 L 29.257812 28.113281 L 29.257812 26.113281 L 23.511719 26.113281 L 23.519531 25.988281 C 23.550781 25.625 23.746094 25.214844 24.105469 24.769531 C 24.457031 24.335938 24.898438 23.925781 25.414062 23.550781 C 26.117188 23.058594 26.722656 22.601562 27.210938 22.195312 C 27.699219 21.792969 28.09375 21.394531 28.386719 21.007812 C 28.675781 20.625 28.890625 20.230469 29.023438 19.835938 C 29.148438 19.441406 29.214844 18.996094 29.214844 18.507812 C 29.214844 17.882812 29.105469 17.332031 28.894531 16.867188 C 28.679688 16.40625 28.382812 16.015625 28.007812 15.714844 C 27.625 15.410156 27.160156 15.175781 26.621094 15.023438 C 26.078125 14.871094 25.472656 14.792969 24.820312 14.792969 C 23.480469 14.792969 22.433594 15.179688 21.707031 15.949219 C 20.996094 16.699219 20.625 17.753906 20.605469 19.085938 L 22.878906 19.085938 C 22.894531 18.234375 23.082031 17.632812 23.4375 17.292969 C 23.804688 16.933594 24.308594 16.753906 24.941406 16.753906 C 25.203125 16.753906 25.453125 16.78125 25.691406 16.835938 C 25.933594 16.890625 26.148438 16.992188 26.328125 17.136719 C 26.511719 17.277344 26.65625 17.472656 26.757812 17.714844 C 26.851562 17.949219 26.90625 18.246094 26.90625 18.585938 C 26.90625 18.875 26.863281 19.144531 26.777344 19.390625 C 26.695312 19.640625 26.554688 19.890625 26.359375 20.140625 C 26.167969 20.382812 25.90625 20.636719 25.589844 20.90625 C 25.273438 21.171875 24.871094 21.472656 24.386719 21.804688 C 23.542969 22.402344 22.855469 22.96875 22.339844 23.488281 C 21.828125 24.003906 21.421875 24.519531 21.144531 25.023438 C 20.863281 25.523438 20.671875 26.035156 20.574219 26.546875 C 20.480469 27.035156 20.429688 27.5625 20.421875 28.113281 Z M 20.421875 28.113281 "/>
</g>
</svg>
