<?xml version="1.0" encoding="UTF-8"?>
<svg xmlns="http://www.w3.org/2000/svg" xmlns:xlink="http://www.w3.org/1999/xlink" width="36px" height="36px" viewBox="0 0 36 23" version="1.1">
<defs>
<clipPath id="clip1">
  <path d="M 0 0 L 36 0 L 36 22.277344 L 0 22.277344 Z M 0 0 "/>
</clipPath>
</defs>
<g id="surface1">
<g clip-path="url(#clip1)" clip-rule="nonzero">
<path style="fill:none;stroke-width:1;stroke-linecap:butt;stroke-linejoin:miter;stroke:rgb(100%,100%,100%);stroke-opacity:1;stroke-miterlimit:4;" d="M 2.445747 0.498981 L 17.554253 0.498981 C 18.172743 0.498981 18.645833 0.702106 18.962674 1.017833 C 19.279514 1.335768 19.481337 1.808254 19.481337 2.426461 L 19.481337 2.448539 L 19.483507 2.470618 C 19.483507 2.472826 19.483507 2.472826 19.483507 2.475034 C 19.485677 2.477242 19.485677 2.483865 19.485677 2.492697 C 19.485677 2.508152 19.487847 2.534647 19.490017 2.567765 C 19.494358 2.636209 19.498698 2.737772 19.500868 2.870245 C 19.503038 3.132982 19.496528 3.512738 19.455295 3.969769 C 19.375 4.888247 19.157986 6.100374 18.619792 7.305876 C 18.083767 8.506963 17.235243 9.694803 15.885417 10.586787 C 14.53559 11.476563 12.65408 12.092561 10.015191 12.092561 C 7.376302 12.092561 5.492622 11.476563 4.140625 10.586787 C 2.788628 9.694803 1.933594 8.506963 1.395399 7.303668 C 0.852865 6.100374 0.63151 4.886039 0.546875 3.969769 C 0.505642 3.512738 0.496962 3.132982 0.499132 2.868037 C 0.501302 2.737772 0.505642 2.634001 0.507812 2.565557 C 0.509983 2.532439 0.512153 2.505944 0.514323 2.490489 C 0.514323 2.481658 0.514323 2.477242 0.514323 2.472826 C 0.514323 2.472826 0.514323 2.470618 0.514323 2.470618 L 0.516493 2.448539 L 0.516493 2.426461 C 0.516493 1.808254 0.720486 1.335768 1.035156 1.017833 C 1.312934 0.741848 1.710069 0.55197 2.220052 0.51002 Z M 2.445747 0.498981 " transform="matrix(1.8,0,0,1.769231,0,0)"/>
</g>
<path style=" stroke:none;fill-rule:nonzero;fill:rgb(100%,100%,100%);fill-opacity:1;" d="M 27.351562 3.445312 L 27.351562 17.210938 L 24.398438 17.210938 L 24.398438 7.007812 L 24.269531 7.007812 C 24.167969 7.160156 23.992188 7.3125 23.734375 7.472656 C 23.484375 7.628906 23.164062 7.761719 22.769531 7.867188 C 22.382812 7.976562 21.933594 8.027344 21.417969 8.027344 L 21.417969 5.71875 C 21.867188 5.71875 22.277344 5.640625 22.640625 5.488281 C 23.011719 5.332031 23.328125 5.132812 23.597656 4.898438 C 23.867188 4.660156 24.074219 4.410156 24.222656 4.152344 C 24.367188 3.890625 24.445312 3.65625 24.453125 3.445312 Z M 27.351562 3.445312 "/>
<path style=" stroke:none;fill-rule:nonzero;fill:rgb(100%,100%,100%);fill-opacity:1;" d="M 9 17.210938 L 9 3.445312 L 14.523438 3.445312 C 15.582031 3.445312 16.484375 3.632812 17.234375 4.003906 C 17.984375 4.371094 18.558594 4.890625 18.949219 5.570312 C 19.34375 6.242188 19.542969 7.03125 19.542969 7.941406 C 19.542969 8.855469 19.34375 9.640625 18.941406 10.300781 C 18.542969 10.953125 17.960938 11.457031 17.199219 11.804688 C 16.441406 12.15625 15.527344 12.332031 14.449219 12.332031 L 10.75 12.332031 L 10.75 9.992188 L 13.972656 9.992188 C 14.535156 9.992188 15.007812 9.914062 15.378906 9.761719 C 15.753906 9.609375 16.03125 9.382812 16.214844 9.078125 C 16.402344 8.773438 16.496094 8.394531 16.496094 7.941406 C 16.496094 7.484375 16.402344 7.097656 16.214844 6.785156 C 16.03125 6.472656 15.75 6.234375 15.371094 6.074219 C 15 5.90625 14.527344 5.824219 13.957031 5.824219 L 11.960938 5.824219 L 11.960938 17.210938 Z M 16.5625 10.945312 L 20.042969 17.210938 L 16.773438 17.210938 L 13.371094 10.945312 Z M 16.5625 10.945312 "/>
</g>
</svg>
