<?xml version="1.0" encoding="UTF-8"?>
<svg xmlns="http://www.w3.org/2000/svg" xmlns:xlink="http://www.w3.org/1999/xlink" width="36px" height="36px" viewBox="0 0 36 36" version="1.1">
<g id="surface1">
<path style="fill:none;stroke-width:1;stroke-linecap:butt;stroke-linejoin:miter;stroke:rgb(100%,100%,100%);stroke-opacity:1;stroke-miterlimit:4;" d="M 10 0.499132 C 15.247396 0.499132 19.500868 4.752604 19.500868 10 C 19.500868 15.247396 15.247396 19.500868 10 19.500868 C 4.752604 19.500868 0.499132 15.247396 0.499132 10 C 0.499132 4.752604 4.752604 0.499132 10 0.499132 Z M 10 0.499132 " transform="matrix(1.8,0,0,1.8,0,0)"/>
<path style=" stroke:none;fill-rule:nonzero;fill:rgb(100%,100%,100%);fill-opacity:1;" d="M 23.925781 25.511719 C 22.882812 25.511719 21.953125 25.332031 21.136719 24.972656 C 20.324219 24.609375 19.683594 24.109375 19.210938 23.476562 C 18.746094 22.839844 18.507812 22.101562 18.492188 21.265625 L 21.542969 21.265625 C 21.558594 21.617188 21.675781 21.925781 21.882812 22.191406 C 22.097656 22.453125 22.382812 22.65625 22.738281 22.800781 C 23.089844 22.941406 23.488281 23.015625 23.933594 23.015625 C 24.394531 23.015625 24.800781 22.933594 25.15625 22.769531 C 25.511719 22.609375 25.789062 22.382812 25.988281 22.09375 C 26.1875 21.804688 26.289062 21.46875 26.289062 21.09375 C 26.289062 20.710938 26.183594 20.371094 25.96875 20.078125 C 25.757812 19.78125 25.453125 19.546875 25.058594 19.378906 C 24.667969 19.210938 24.199219 19.128906 23.660156 19.128906 L 22.324219 19.128906 L 22.324219 16.90625 L 23.660156 16.90625 C 24.117188 16.90625 24.519531 16.824219 24.871094 16.667969 C 25.222656 16.507812 25.5 16.289062 25.695312 16.007812 C 25.890625 15.726562 25.988281 15.394531 25.988281 15.015625 C 25.988281 14.65625 25.902344 14.34375 25.730469 14.074219 C 25.5625 13.796875 25.324219 13.582031 25.015625 13.429688 C 24.714844 13.273438 24.359375 13.199219 23.953125 13.199219 C 23.542969 13.199219 23.167969 13.273438 22.828125 13.421875 C 22.488281 13.566406 22.214844 13.773438 22.011719 14.042969 C 21.804688 14.316406 21.695312 14.632812 21.679688 14.996094 L 18.78125 14.996094 C 18.792969 14.171875 19.027344 13.441406 19.484375 12.8125 C 19.941406 12.183594 20.558594 11.691406 21.332031 11.339844 C 22.109375 10.980469 22.988281 10.800781 23.96875 10.800781 C 24.957031 10.800781 25.820312 10.980469 26.5625 11.339844 C 27.304688 11.699219 27.878906 12.183594 28.289062 12.792969 C 28.703125 13.398438 28.910156 14.078125 28.90625 14.835938 C 28.910156 15.636719 28.660156 16.304688 28.15625 16.839844 C 27.65625 17.378906 27.007812 17.71875 26.207031 17.863281 L 26.207031 17.972656 C 27.257812 18.109375 28.0625 18.476562 28.609375 19.070312 C 29.164062 19.664062 29.441406 20.40625 29.4375 21.296875 C 29.441406 22.113281 29.203125 22.835938 28.730469 23.46875 C 28.257812 24.105469 27.609375 24.601562 26.777344 24.964844 C 25.949219 25.332031 24.996094 25.511719 23.925781 25.511719 Z M 23.925781 25.511719 "/>
<path style=" stroke:none;fill-rule:nonzero;fill:rgb(100%,100%,100%);fill-opacity:1;" d="M 7.199219 25.316406 L 7.199219 10.996094 L 12.851562 10.996094 C 13.929688 10.996094 14.855469 11.1875 15.617188 11.578125 C 16.386719 11.957031 16.972656 12.5 17.375 13.207031 C 17.78125 13.90625 17.980469 14.726562 17.980469 15.671875 C 17.980469 16.625 17.777344 17.441406 17.367188 18.128906 C 16.957031 18.808594 16.363281 19.332031 15.582031 19.695312 C 14.808594 20.058594 13.875 20.238281 12.773438 20.238281 L 8.988281 20.238281 L 8.988281 17.804688 L 12.285156 17.804688 C 12.863281 17.804688 13.339844 17.726562 13.722656 17.570312 C 14.105469 17.410156 14.390625 17.171875 14.578125 16.855469 C 14.769531 16.539062 14.863281 16.144531 14.863281 15.671875 C 14.863281 15.199219 14.769531 14.796875 14.578125 14.472656 C 14.390625 14.144531 14.105469 13.898438 13.71875 13.730469 C 13.335938 13.558594 12.851562 13.472656 12.269531 13.472656 L 10.226562 13.472656 L 10.226562 25.316406 Z M 14.933594 18.800781 L 18.492188 25.316406 L 15.148438 25.316406 L 11.667969 18.800781 Z M 14.933594 18.800781 "/>
</g>
</svg>
