<?xml version="1.0" encoding="UTF-8"?>
<svg xmlns="http://www.w3.org/2000/svg" xmlns:xlink="http://www.w3.org/1999/xlink" width="36px" height="36px" viewBox="0 0 36 36" version="1.1">
<g id="surface1">
<path style="fill:none;stroke-width:1;stroke-linecap:butt;stroke-linejoin:miter;stroke:rgb(100%,100%,100%);stroke-opacity:1;stroke-miterlimit:4;" d="M 10 0.499132 C 15.247396 0.499132 19.500868 4.752604 19.500868 10 C 19.500868 15.247396 15.247396 19.500868 10 19.500868 C 4.752604 19.500868 0.499132 15.247396 0.499132 10 C 0.499132 4.752604 4.752604 0.499132 10 0.499132 Z M 10 0.499132 " transform="matrix(1.8,0,0,1.8,0,0)"/>
<path style=" stroke:none;fill-rule:nonzero;fill:rgb(100%,100%,100%);fill-opacity:1;" d="M 10.800781 27 L 10.800781 9 L 18.003906 9 C 19.382812 9 20.558594 9.242188 21.535156 9.730469 C 22.515625 10.210938 23.261719 10.890625 23.773438 11.777344 C 24.289062 12.65625 24.550781 13.691406 24.550781 14.878906 C 24.550781 16.074219 24.289062 17.101562 23.765625 17.964844 C 23.242188 18.820312 22.484375 19.476562 21.492188 19.933594 C 20.503906 20.390625 19.308594 20.621094 17.90625 20.621094 L 13.082031 20.621094 L 13.082031 17.5625 L 17.28125 17.5625 C 18.019531 17.5625 18.632812 17.460938 19.117188 17.261719 C 19.605469 17.0625 19.96875 16.761719 20.207031 16.367188 C 20.449219 15.964844 20.574219 15.472656 20.574219 14.878906 C 20.574219 14.28125 20.449219 13.777344 20.207031 13.367188 C 19.96875 12.957031 19.601562 12.648438 19.109375 12.4375 C 18.621094 12.21875 18.007812 12.113281 17.265625 12.113281 L 14.660156 12.113281 L 14.660156 27 Z M 20.660156 18.808594 L 25.199219 27 L 20.9375 27 L 16.496094 18.808594 Z M 20.660156 18.808594 "/>
</g>
</svg>
