<?xml version="1.0" encoding="UTF-8"?>
<svg xmlns="http://www.w3.org/2000/svg" xmlns:xlink="http://www.w3.org/1999/xlink" width="36px" height="36px" viewBox="0 0 36 39" version="1.1">
<defs>
<clipPath id="clip1">
  <path d="M 0 0 L 36 0 L 36 37.367188 L 0 37.367188 Z M 0 0 "/>
</clipPath>
</defs>
<g id="surface1">
<g clip-path="url(#clip1)" clip-rule="nonzero">
<path style="fill:none;stroke-width:1;stroke-linecap:butt;stroke-linejoin:miter;stroke:rgb(100%,100%,100%);stroke-opacity:1;stroke-miterlimit:4;" d="M 7.528212 0.5002 C 5.444878 0.5002 3.259549 1.789263 2.157118 4.140425 C 1.336806 5.887821 0.920139 8.02524 0.709635 9.748397 C 0.603299 10.607772 0.551215 11.352564 0.525174 11.885817 C 0.512153 12.15024 0.505642 12.361779 0.503472 12.505008 C 0.501302 12.577724 0.501302 12.632812 0.499132 12.668069 L 0.499132 12.723157 L 0.501302 18.628606 L 0.512153 18.864383 C 0.568576 19.39984 0.809462 19.789864 1.163194 20.065304 C 1.584201 20.389223 2.196181 20.578726 2.925347 20.578726 L 17.545573 20.578726 C 18.808594 20.578726 19.518229 19.70613 19.503038 18.862179 L 19.490017 18.694712 C 19.401042 18.040264 19.088542 16.729167 18.055556 13.359976 C 17.317708 10.960337 16.017795 7.265024 14.622396 5.178285 C 12.892795 2.59355 10.460069 0.5002 7.528212 0.5002 Z M 7.528212 0.5002 " transform="matrix(1.8,0,0,1.772727,0,0)"/>
</g>
<path style=" stroke:none;fill-rule:nonzero;fill:rgb(100%,100%,100%);fill-opacity:1;" d="M 17.207031 28.363281 L 17.207031 26.230469 L 22.261719 21.621094 C 22.691406 21.210938 23.054688 20.84375 23.34375 20.515625 C 23.640625 20.1875 23.867188 19.867188 24.019531 19.550781 C 24.171875 19.234375 24.246094 18.886719 24.246094 18.519531 C 24.246094 18.109375 24.152344 17.757812 23.960938 17.460938 C 23.773438 17.160156 23.515625 16.929688 23.1875 16.769531 C 22.855469 16.605469 22.484375 16.523438 22.070312 16.523438 C 21.632812 16.523438 21.253906 16.613281 20.929688 16.785156 C 20.609375 16.957031 20.359375 17.207031 20.183594 17.527344 C 20.007812 17.851562 19.917969 18.238281 19.917969 18.683594 L 17.066406 18.683594 C 17.066406 17.769531 17.277344 16.972656 17.699219 16.300781 C 18.121094 15.625 18.710938 15.105469 19.46875 14.734375 C 20.226562 14.367188 21.101562 14.183594 22.089844 14.183594 C 23.105469 14.183594 23.992188 14.359375 24.746094 14.714844 C 25.503906 15.066406 26.09375 15.550781 26.515625 16.175781 C 26.9375 16.800781 27.144531 17.515625 27.144531 18.320312 C 27.144531 18.851562 27.039062 19.371094 26.828125 19.886719 C 26.617188 20.402344 26.246094 20.972656 25.710938 21.601562 C 25.175781 22.222656 24.417969 22.972656 23.441406 23.847656 L 21.367188 25.851562 L 21.367188 25.945312 L 27.332031 25.945312 L 27.332031 28.363281 Z M 17.207031 28.363281 "/>
<path style=" stroke:none;fill-rule:nonzero;fill:rgb(100%,100%,100%);fill-opacity:1;" d="M 4.964844 28.363281 L 4.964844 14.375 L 10.570312 14.375 C 11.644531 14.375 12.558594 14.5625 13.316406 14.941406 C 14.078125 15.3125 14.660156 15.84375 15.058594 16.53125 C 15.460938 17.214844 15.660156 18.019531 15.660156 18.941406 C 15.660156 19.871094 15.457031 20.671875 15.050781 21.339844 C 14.644531 22.007812 14.054688 22.515625 13.28125 22.871094 C 12.515625 23.226562 11.585938 23.402344 10.492188 23.402344 L 6.742188 23.402344 L 6.742188 21.027344 L 10.007812 21.027344 C 10.582031 21.027344 11.058594 20.949219 11.4375 20.792969 C 11.816406 20.640625 12.097656 20.40625 12.285156 20.097656 C 12.472656 19.789062 12.566406 19.402344 12.566406 18.941406 C 12.566406 18.480469 12.472656 18.085938 12.285156 17.769531 C 12.097656 17.449219 11.8125 17.207031 11.429688 17.042969 C 11.050781 16.875 10.574219 16.792969 9.996094 16.792969 L 7.96875 16.792969 L 7.96875 28.363281 Z M 12.636719 21.996094 L 16.167969 28.363281 L 12.851562 28.363281 L 9.398438 21.996094 Z M 12.636719 21.996094 "/>
</g>
</svg>
